{"title":"Gods of Egypt(2016)MPEG-4[DaScubaDude]","uid":15775856,"size":1390928453,"categoryP":"video","categoryS":"movies","magnet":"?xt=urn:btih:48b7c9c4bc4c4a91f5eb70ac464f9d816891a81c&amp;dn=Gods+of+Egypt%282016%29MPEG-4%5BDaScubaDude%5D&amp;tr=udp%3A%2F%2Ftracker.leechers-paradise.org%3A6969&amp;tr=udp%3A%2F%2Fzer0day.ch%3A1337&amp;tr=udp%3A%2F%2Fopen.demonii.com%3A1337&amp;tr=udp%3A%2F%2Ftracker.coppersurfer.tk%3A6969&amp;tr=udp%3A%2F%2Fexodus.desync.com%3A6969","seeders":6,"leechers":3,"uploader":"dascuba","files":1,"time":1473228911,"description":"Gods of Egypt (2016)\r\nPG-13 | 2h 6min | Action, Adventure, Fantasy | 26 February 2016 (USA)\r\nMortal hero Bek teams with the god Horus in an alliance against Set, the merciless god of darkness, who has usurped Egypt's throne, plunging the once peaceful and prosperous empire into chaos and conflict.\r\nDirector: Alex Proyas\r\nWriters: Matt Sazama, Burk Sharpless\r\nStars: Brenton Thwaites, Nikolaj Coster-Waldau, Gerard Butler | \r\n\r\nGeneral\r\nComplete name                            : Gods of EgyptGODS_OF_EGYPT_Title1.mp4\r\nFormat                                   : MPEG-4\r\nFormat profile                           : Base Media\r\nCodec ID                                 : isom (isom/iso2/avc1/mp41)\r\nFile size                                : 1.30 GiB\r\nDuration                                 : 2h 6mn\r\nOverall bit rate                         : 1 461 Kbps\r\nMovie name                               : GODS_OF_EGYPT\r\nGenre                                    : Action\r\nWriting application                      : Lavf54.6.100\r\n\r\nVideo\r\nID                                       : 1\r\nFormat                                   : AVC\r\nFormat/Info                              : Advanced Video Codec\r\nFormat profile                           :   \r\nFormat settings, CABAC                   : No\r\nFormat settings, ReFrames                : 6 frames\r\nFormat settings, GOP                     : M=1, N=60\r\nCodec ID                                 : avc1\r\nCodec ID/Info                            : Advanced Video Coding\r\nDuration                                 : 2h 6mn\r\nBit rate                                 : 1 195 Kbps\r\nWidth                                    : 720 pixels\r\nHeight                                   : 404 pixels\r\nDisplay aspect ratio                     : 16:9\r\nFrame rate mode                          : Constant\r\nFrame rate                               : 29.970 (30000/1001) fps\r\nColor space                              : YUV\r\nChroma subsampling                       : 4:2:0\r\nBit depth                                : 8 bits\r\nScan type                                : Progressive\r\nBits/(Pixel*Frame)                       : 0.137\r\nStream size                              : 1.06 GiB (82%)\r\n\r\nAudio\r\nID                                       : 2\r\nFormat                                   : AAC\r\nFormat/Info                              : Advanced Audio Codec\r\nFormat profile                           : LC\r\nCodec ID                                 : 40\r\nDuration                                 : 2h 6mn\r\nBit rate mode                            : Constant\r\nBit rate                                 : 259 Kbps\r\nChannel(s)                               : 2 channels\r\nChannel(s)_Original                      : 6 channels\r\nChannel positions                        : Front: L C R, Side: L R, LFE\r\nSampling rate                            : 44.1 KHz\r\nFrame rate                               : 43.066 fps (1024 spf)\r\nCompression mode                         : Lossy\r\nStream size                              : 235 MiB (18%)\r\nDefault                                  : Yes\r\nAlternate group                          : 1","torrent":{"xt":"urn:btih:48b7c9c4bc4c4a91f5eb70ac464f9d816891a81c","amp;dn":"Gods+of+Egypt%282016%29MPEG-4%5BDaScubaDude%5D","amp;tr":["udp%3A%2F%2Ftracker.leechers-paradise.org%3A6969","udp%3A%2F%2Fzer0day.ch%3A1337","udp%3A%2F%2Fopen.demonii.com%3A1337","udp%3A%2F%2Ftracker.coppersurfer.tk%3A6969","udp%3A%2F%2Fexodus.desync.com%3A6969"],"infoHash":"48b7c9c4bc4c4a91f5eb70ac464f9d816891a81c","infoHashBuffer":{"type":"Buffer","data":[72,183,201,196,188,76,74,145,245,235,112,172,70,79,157,129,104,145,168,28]},"announce":[],"urlList":[]}}